<?xml version="1.0" encoding="UTF-8"?>
<svg width="46px" height="46px" viewBox="0 0 46 46" version="1.1" xmlns="http://www.w3.org/2000/svg" xmlns:xlink="http://www.w3.org/1999/xlink">
    <title>编组 7</title>
    <g id="1.1.0" stroke="none" stroke-width="1" fill="none" fill-rule="evenodd">
        <g id="预览不出来" transform="translate(-1127.000000, -343.000000)">
            <g id="编组-2备份-4" transform="translate(580.000000, 230.000000)">
                <g id="编组-8" transform="translate(547.000000, 113.000000)">
                    <rect id="矩形" x="0" y="0" width="46" height="46"></rect>
                    <path d="M28.36,9 L22.1149461,17.1571294 L26.3384801,19.158042 L23.2330652,25.9899548 L23.3077336,26.1090117 C23.0794009,26.1504982 22.8264582,26.0701164 22.6075287,25.8619252 L19.9290173,23.3147943 C19.3025831,22.9541807 18.3746267,23.1461828 17.9816837,23.7177143 L12.5115331,31.673994 C11.9943158,32.4262811 12.7357603,33.2660687 13.786755,33.118361 L26.565,31.321 L28.552,34.499 L11.3713203,36.9140354 C8.94118946,37.255568 6.70865938,35.6645107 6.38482505,33.3603097 L4.03940903,16.6718076 C3.71557466,14.3676063 5.42306549,12.2228152 7.8531963,11.8812826 L28.36,9 Z M32.48,10.21 L39.2748245,10.2113148 C40.8197944,10.2113148 42.278425,11.1898326 42.9823219,12.5472951 L42.9823219,33.4550362 C42.278425,34.8124987 40.8197944,35.7910165 39.2748245,35.7910165 L34.44,35.79 L27.969,26.083 L27.8701389,25.5591358 L27.87,25.107 L34.0415466,18.0120239 L28.0245417,15.8220132 L32.48,10.21 Z M12.2296354,14.9129561 C10.2283511,15.1942182 8.83100642,17.0233041 9.10857873,18.9983338 C9.38615105,20.9733635 11.2335294,22.3464333 13.2348137,22.0651712 C15.236098,21.783909 16.6334426,19.9548231 16.3558703,17.9797934 C16.078298,16.0047637 14.2309197,14.6316939 12.2296354,14.9129561 Z" id="形状结合" fill-opacity="0.1" fill="#000000" fill-rule="nonzero"></path>
                </g>
            </g>
        </g>
    </g>
</svg>