<?xml version="1.0" encoding="UTF-8"?>
<svg width="70px" height="70px" viewBox="0 0 70 70" version="1.1" xmlns="http://www.w3.org/2000/svg" xmlns:xlink="http://www.w3.org/1999/xlink">
    <title>编组</title>
    <g id="1.1.0" stroke="none" stroke-width="1" fill="none" fill-rule="evenodd">
        <g id="文本-无法预览" transform="translate(-1114.000000, -459.000000)">
            <g id="编组-2备份-15" transform="translate(579.500000, 253.000000)">
                <g id="编组" transform="translate(534.500000, 206.000000)">
                    <rect id="矩形" x="0" y="0" width="70" height="70"></rect>
                    <path d="M37.533,10.275 L26.806,24.285 L17.0713173,26.3546422 C16.4115373,26.4948827 15.9840696,27.1154191 16.1170837,27.7412012 C16.2500978,28.3669833 16.8927853,28.7600512 17.5527839,28.6197641 L29.486,26.083 L34.1856754,28.309935 L32.86,31.225 L18.7444147,34.2259464 C18.0847719,34.3668326 17.6578742,34.9879217 17.7913167,35.6136127 C17.9245327,36.2382273 18.5667433,36.6311681 19.2259723,36.4914971 L31.668,33.846 L28.607,40.581 L20.463351,42.3129058 C19.8036624,42.4535767 19.3768104,43.074881 19.5102074,43.7003577 C19.643377,44.3247537 20.2855885,44.7176987 20.9448175,44.5780277 L29.775,42.7 L37.725,55.42 L36.762,55.42 L18.9561391,59.2059127 C14.9946555,60.047952 12.6564629,58.4894578 11.8587955,54.7367279 L5.23358757,23.5675751 C4.43587107,19.814614 5.63134416,17.0551991 9.59304218,16.2131142 L37.533,10.275 Z M58.2327955,11.4202168 C62.2830002,11.4202168 64.0262788,13.6508003 64.0262788,17.4875833 L64.0262788,49.3530735 C64.0262788,53.1896588 62.2829959,55.4202168 58.2327955,55.4202168 L46.832,55.42 L36.4022212,39.7760027 L47.3571628,26.5917686 L37.8411771,22.5013607 C37.856423,22.3117447 37.8721402,22.1215541 37.8883286,21.9307889 L37.422,22.029 L45.846,11.42 L58.2327955,11.4202168 Z" id="形状结合" fill-opacity="0.1" fill="#000000" fill-rule="nonzero"></path>
                </g>
            </g>
        </g>
    </g>
</svg>