<?xml version="1.0" encoding="UTF-8"?>
<svg width="24px" height="24px" viewBox="0 0 24 24" version="1.1" xmlns="http://www.w3.org/2000/svg" xmlns:xlink="http://www.w3.org/1999/xlink">
    <title>icon/搜索2</title>
    <g id="icon/搜索2" stroke="none" stroke-width="1" fill="none" fill-rule="evenodd">
        <g id="编组" transform="translate(2.000000, 2.000000)" fill="#FFFFFF" fill-rule="nonzero">
            <path d="M7.95180723,15.9036145 C12.3434691,15.9036145 15.9036145,12.3434691 15.9036145,7.95180723 C15.9036145,3.56014536 12.3434691,0 7.95180723,0 C3.56014536,0 0,3.56014536 0,7.95180723 C0,12.3434691 3.56014536,15.9036145 7.95180723,15.9036145 Z M7.95180723,14.4578313 C4.35862934,14.4578313 1.44578313,11.5449851 1.44578313,7.95180723 C1.44578313,4.35862934 4.35862934,1.44578313 7.95180723,1.44578313 C11.5449851,1.44578313 14.4578313,4.35862934 14.4578313,7.95180723 C14.4578313,11.5449851 11.5449851,14.4578313 7.95180723,14.4578313 Z" id="Path"></path>
            <path d="M12.9828144,14.0051374 L18.7659469,19.78827 C19.0482536,20.0705767 19.5059632,20.0705767 19.78827,19.78827 C20.0705767,19.5059632 20.0705767,19.0482536 19.78827,18.7659469 L14.0051374,12.9828144 C13.7228307,12.7005077 13.2651211,12.7005077 12.9828144,12.9828144 C12.7005077,13.2651211 12.7005077,13.7228307 12.9828144,14.0051374 Z" id="Line"></path>
        </g>
    </g>
</svg>