<?xml version="1.0" encoding="UTF-8"?>
<svg width="36px" height="36px" viewBox="0 0 36 36" version="1.1" xmlns="http://www.w3.org/2000/svg" xmlns:xlink="http://www.w3.org/1999/xlink">
    <title>web搜索 2</title>
    <g id="1.1.0" stroke="none" stroke-width="1" fill="none" fill-rule="evenodd">
        <g id="画板" transform="translate(-478.000000, -392.000000)" fill="#536076">
            <g id="形状" transform="translate(478.000000, 392.000000)">
                <path d="M17.7695063,9.00022293 C19.0678548,9.00022293 20.3002012,9.28964041 21.4088514,9.80926554 L20.0172692,11.1654066 C19.6749583,11.5165763 19.5389334,12.0272362 19.6595657,12.5082847 L19.6849511,12.5973363 L19.8944961,13.2666438 C19.2282554,12.9513702 18.5031611,12.7886091 17.7695063,12.7896497 C14.965572,12.7896497 12.6924237,15.1225155 12.6924237,18.0001115 C12.6924237,20.8777074 14.965572,23.2105733 17.7695063,23.2105733 C20.5734406,23.2105733 22.8465889,20.8777074 22.8465889,18.0001115 C22.8465889,17.3606457 22.7344315,16.7477059 22.5285789,16.1811866 L23.7083083,16.5246034 C24.1740152,16.684233 24.6129521,16.3564476 24.969271,16.0016625 L25.0278882,15.9419791 L26.0063805,14.9032025 C26.3599952,15.8953293 26.540302,16.9436961 26.5390195,18.0001115 C26.5390195,22.9704183 22.6125815,27 17.7695063,27 C12.9264311,27 9,22.9704183 9,18.0001115 C9,13.0298046 12.926431,9.00022293 17.7695063,9.00022293 Z M17.7695063,14.2106847 C18.3602941,14.2106847 18.9183116,14.3527882 19.4135579,14.6062061 L17.1505638,17.0437549 C16.7499358,17.4549077 16.8754782,18.3904224 17.3822634,18.8839953 C17.8687402,19.3576736 18.8906184,19.3122005 19.3258629,18.9436787 L19.3770953,18.8963109 L21.3193101,16.9532823 C21.7579693,18.5194894 21.1718006,20.1981283 19.8636602,21.1218955 C18.5555197,22.0456628 16.8183857,22.0076665 15.5497844,21.0275382 C14.281183,20.04741 13.7652371,18.3446646 14.2685208,16.7990606 C14.7718044,15.2534567 16.1815995,14.211156 17.7695063,14.2106847 L17.7695063,14.2106847 Z M24.0124717,9.13522126 C24.0618025,9.18590948 24.0989402,9.2477018 24.1209366,9.31569271 L24.7624952,11.2980366 L26.6927097,11.9555021 C26.8402921,12.0059075 26.9519523,12.1310954 26.98786,12.2864102 C27.0237678,12.4417249 26.9788098,12.6050494 26.869023,12.7181242 L24.2727876,15.3830386 C24.0322158,15.6301114 23.6761885,15.7163207 23.3533741,15.6056674 L21.9770231,15.1329364 L18.9187732,18.2715292 C18.7497433,18.4513916 18.4992707,18.5236019 18.2637034,18.4603835 C18.0281361,18.397165 17.8441696,18.2083656 17.7825694,17.9666097 C17.7209693,17.7248539 17.7913312,17.4678012 17.9665894,17.2943307 L21.0183776,14.1623695 L20.5614402,12.7413345 C20.455498,12.4108982 20.539941,12.0473967 20.7797547,11.8015567 L23.3778363,9.13474757 C23.5531628,8.95508414 23.8371452,8.95508414 24.0124717,9.13474757 L24.0124717,9.13522126 Z"></path>
            </g>
        </g>
    </g>
</svg>