<?xml version="1.0" encoding="UTF-8"?>
<svg width="24px" height="24px" viewBox="0 0 24 24" version="1.1" xmlns="http://www.w3.org/2000/svg" xmlns:xlink="http://www.w3.org/1999/xlink">
    <title>编组</title>
    <g id="1.1.0" stroke="none" stroke-width="1" fill="none" fill-rule="evenodd">
        <g id="画板" transform="translate(-231.000000, -38.000000)">
            <g id="编组" transform="translate(231.000000, 38.000000)">
                <g id="编组-13" fill="#D8D8D8" opacity="0" stroke="#979797">
                    <rect id="矩形备份" x="0.5" y="0.5" width="23" height="23"></rect>
                </g>
                <path d="M12.8235294,5 C13.9280989,5 14.8235294,5.8954305 14.8235294,7 L14.823,9.125 L17.2352941,9.125 C18.3398636,9.125 19.2352941,10.0204305 19.2352941,11.125 L19.2352941,16.125 C19.2352941,17.2295695 18.3398636,18.125 17.2352941,18.125 L12.1596639,18.125 C11.0550944,18.125 10.1596639,17.2295695 10.1596639,16.125 L10.159,13.75 L8,13.75 C6.8954305,13.75 6,12.8545695 6,11.75 L6,7 C6,5.8954305 6.8954305,5 8,5 L12.8235294,5 Z M17,10.125 L12,10.125 C11.4477153,10.125 11,10.5727153 11,11.125 L11,11.125 L11,16.0666667 C11,16.6189514 11.4477153,17.0666667 12,17.0666667 L12,17.0666667 L17,17.0666667 C17.5522847,17.0666667 18,16.6189514 18,16.0666667 L18,16.0666667 L18,11.125 C18,10.5727153 17.5522847,10.125 17,10.125 L17,10.125 Z" id="形状结合" fill="#536076"></path>
            </g>
        </g>
    </g>
</svg>