<?xml version="1.0" encoding="UTF-8"?>
<svg width="24px" height="24px" viewBox="0 0 24 24" version="1.1" xmlns="http://www.w3.org/2000/svg" xmlns:xlink="http://www.w3.org/1999/xlink">
    <title>编组</title>
    <g id="1.1.0" stroke="none" stroke-width="1" fill="none" fill-rule="evenodd">
        <g id="编组">
            <g id="编组-13" fill="#D8D8D8" opacity="0" stroke="#979797">
                <rect id="矩形备份" x="0.5" y="0.5" width="23" height="23"></rect>
            </g>
            <path d="M12.8235294,5 C13.9280989,5 14.8235294,5.8954305 14.8235294,7 L14.823,9 L17,9 C18.1045695,9 19,9.8954305 19,11 L19,15.925 C19,17.0295695 18.1045695,17.925 17,17.925 L12,17.925 C10.8954305,17.925 10,17.0295695 10,15.925 L10,13.75 L8,13.75 C6.8954305,13.75 6,12.8545695 6,11.75 L6,7 C6,5.8954305 6.8954305,5 8,5 L12.8235294,5 Z M17,10 L12,10 C11.4477153,10 11,10.4477153 11,11 L11,11 L11,16 C11,16.5522847 11.4477153,17 12,17 L12,17 L17,17 C17.5522847,17 18,16.5522847 18,16 L18,16 L18,11 C18,10.4477153 17.5522847,10 17,10 L17,10 Z" id="形状结合" fill="#FFFFFF"></path>
        </g>
    </g>
</svg>