<?xml version="1.0" encoding="UTF-8"?>
<svg width="24px" height="24px" viewBox="0 0 24 24" version="1.1" xmlns="http://www.w3.org/2000/svg" xmlns:xlink="http://www.w3.org/1999/xlink">
    <title>编组 5</title>
    <g id="1.1.0" stroke="none" stroke-width="1" fill="none" fill-rule="evenodd">
        <g id="编组-4">
            <g id="编组-14备份" fill="#D8D8D8" opacity="0" stroke="#979797">
                <rect id="矩形" x="0.5" y="0.5" width="23" height="23"></rect>
            </g>
            <g id="ICON-/-Action-/-Open" transform="translate(4.763887, 8.050294)" fill="#FFFFFF" fill-rule="nonzero">
                <path d="M11.14396,0.207239493 L14.1793337,3.2426132 C14.569858,3.63313749 14.569858,4.26630247 14.1793337,4.65682676 L11.1437804,7.69238013 C10.8953415,7.94081899 10.5079785,7.96566288 10.2317549,7.76691179 L10.1441396,7.69238013 C10.1440862,7.69232676 10.1440329,7.69227337 10.1439795,7.69221998 C9.86790948,7.41597302 9.8679785,6.96825457 10.1441337,6.69209275 L12.8864405,3.94971998 L10.1433688,1.20719008 C9.8948406,0.958711019 9.86995196,0.571249545 10.0687276,0.294934231 L10.1434795,0.207079296 L10.1434795,0.207079296 C10.4198247,-0.0690889766 10.8677033,-0.069017262 11.14396,0.207239493 Z M1,2.96203831 C1.55228475,2.96203831 2,3.40975356 2,3.96203831 C2,4.51432306 1.55228475,4.96203831 1,4.96203831 C0.44771525,4.96203831 0,4.51432306 0,3.96203831 C0,3.40975356 0.44771525,2.96203831 1,2.96203831 Z M4,2.96203831 C4.55228475,2.96203831 5,3.40975356 5,3.96203831 C5,4.51432306 4.55228475,4.96203831 4,4.96203831 C3.44771525,4.96203831 3,4.51432306 3,3.96203831 C3,3.40975356 3.44771525,2.96203831 4,2.96203831 Z M10,2.96203831 C10.5522847,2.96203831 11,3.40975356 11,3.96203831 C11,4.51432306 10.5522847,4.96203831 10,4.96203831 L7,4.96203831 C6.44771525,4.96203831 6,4.51432306 6,3.96203831 C6,3.40975356 6.44771525,2.96203831 7,2.96203831 L10,2.96203831 Z" id="形状结合"></path>
            </g>
        </g>
    </g>
</svg>