<?xml version="1.0" encoding="UTF-8"?>
<svg width="24px" height="24px" viewBox="0 0 24 24" version="1.1" xmlns="http://www.w3.org/2000/svg" xmlns:xlink="http://www.w3.org/1999/xlink">
    <title>编组 2</title>
    <g id="1.1.0" stroke="none" stroke-width="1" fill="none" fill-rule="evenodd">
        <g id="编组-2">
            <rect id="矩形" stroke="#979797" fill="#D8D8D8" opacity="0" x="0.5" y="0.5" width="23" height="23"></rect>
            <path d="M16.8028755,18 C17.1771789,18 17.6280443,17.7137434 17.7896753,17.3287775 L20.9372261,10.4191344 C21.1328846,9.99468489 20.8521571,9.74791192 20.3587573,9.74791192 L17.1856858,9.74791192 L17.1856858,8.09946849 C17.1856858,7.53682612 16.7858618,7.06302202 16.2924619,7.06302202 L8.51716074,7.06302202 L7.93869195,5.30599848 C7.87914369,5.12832194 7.72601959,5 7.56438861,5 L4.40833091,5 C4.29774129,5 4.19565856,5.04935459 4.12760341,5.13819286 C4.04253447,5.23690205 4.00850689,5.34548216 4.00850689,5.46393318 L4.01701379,8.08959757 L4,16.9635535 C4,17.5261959 4.39982402,18 4.89322388,18 M16.3690239,9.738041 L9.4359053,9.738041 C9.12115022,9.738041 8.81490203,10.0341686 8.65327105,10.4092635 L5.82047533,17.0523918 L4.86770319,17.0523918 C4.82516872,17.0523918 4.78263425,17.0129081 4.78263425,16.9536826 L4.78263425,5.92786636 L7.25814042,5.92786636 L7.83660922,7.6848899 C7.89615748,7.87243736 8.04928157,7.99088838 8.21091255,7.99088838 L16.2669412,7.99088838 C16.3094757,7.99088838 16.3520102,8.03037206 16.3520102,8.08959757 L16.3520102,9.738041 L16.3690239,9.738041 Z" id="形状" fill="#FFFFFF" fill-rule="nonzero"></path>
        </g>
    </g>
</svg>