<?xml version="1.0" encoding="UTF-8"?>
<svg width="24px" height="24px" viewBox="0 0 24 24" version="1.1" xmlns="http://www.w3.org/2000/svg" xmlns:xlink="http://www.w3.org/1999/xlink">
    <title>编组 2</title>
    <defs>
        <filter color-interpolation-filters="auto" id="filter-1">
            <feColorMatrix in="SourceGraphic" type="matrix" values="0 0 0 0 0.324837 0 0 0 0 0.376062 0 0 0 0 0.463382 0 0 0 1.000000 0"></feColorMatrix>
        </filter>
    </defs>
    <g id="1.1.0" stroke="none" stroke-width="1" fill="none" fill-rule="evenodd">
        <g id="画板" transform="translate(-183.000000, -38.000000)">
            <g id="编组-2" transform="translate(183.000000, 38.000000)">
                <rect id="矩形" stroke="#979797" fill="#D8D8D8" opacity="0" x="0.5" y="0.5" width="23" height="23"></rect>
                <g filter="url(#filter-1)" id="打开备份-3">
                    <g transform="translate(4.000000, 5.000000)">
                        <path d="M12.8028755,13 C13.1771789,13 13.6280443,12.7137434 13.7896753,12.3287775 L16.9372261,5.4191344 C17.1328846,4.99468489 16.8521571,4.74791192 16.3587573,4.74791192 L13.1856858,4.74791192 L13.1856858,3.09946849 C13.1856858,2.53682612 12.7858618,2.06302202 12.2924619,2.06302202 L4.51716074,2.06302202 L3.93869195,0.305998481 C3.87914369,0.128321944 3.72601959,0 3.56438861,0 L0.408330914,0 C0.297741292,0 0.195658563,0.0493545938 0.127603411,0.138192863 C0.0425344703,0.23690205 0.00850689405,0.345482156 0.00850689405,0.463933181 L0.0170137881,3.08959757 L0,11.9635535 C0,12.5261959 0.39982402,13 0.893223875,13 M12.3690239,4.738041 L5.4359053,4.738041 C5.12115022,4.738041 4.81490203,5.03416856 4.65327105,5.40926348 L1.82047533,12.0523918 L0.867703193,12.0523918 C0.825168723,12.0523918 0.782634253,12.0129081 0.782634253,11.9536826 L0.782634253,0.927866363 L3.25814042,0.927866363 L3.83660922,2.6848899 C3.89615748,2.87243736 4.04928157,2.99088838 4.21091255,2.99088838 L12.2669412,2.99088838 C12.3094757,2.99088838 12.3520102,3.03037206 12.3520102,3.08959757 L12.3520102,4.738041 L12.3690239,4.738041 Z" id="形状" fill="#000000" fill-rule="nonzero"></path>
                    </g>
                </g>
            </g>
        </g>
    </g>
</svg>