<?xml version="1.0" encoding="UTF-8"?>
<svg width="24px" height="24px" viewBox="0 0 24 24" version="1.1" xmlns="http://www.w3.org/2000/svg" xmlns:xlink="http://www.w3.org/1999/xlink">
    <title>icon/ai搜索</title>
    <defs>
        <filter x="-9.1%" y="-4.5%" width="118.2%" height="118.2%" filterUnits="objectBoundingBox" id="filter-1">
            <feOffset dx="0" dy="1" in="SourceAlpha" result="shadowOffsetOuter1"></feOffset>
            <feGaussianBlur stdDeviation="0.5" in="shadowOffsetOuter1" result="shadowBlurOuter1"></feGaussianBlur>
            <feColorMatrix values="0 0 0 0 0   0 0 0 0 0   0 0 0 0 0  0 0 0 0.2 0" type="matrix" in="shadowBlurOuter1" result="shadowMatrixOuter1"></feColorMatrix>
            <feMerge>
                <feMergeNode in="shadowMatrixOuter1"></feMergeNode>
                <feMergeNode in="SourceGraphic"></feMergeNode>
            </feMerge>
        </filter>
        <linearGradient x1="108.214078%" y1="39.0940622%" x2="50%" y2="22.6773233%" id="linearGradient-2">
            <stop stop-color="#6448FF" offset="0%"></stop>
            <stop stop-color="#FF37DF" offset="100%"></stop>
        </linearGradient>
        <linearGradient x1="7.56318058%" y1="59.477802%" x2="56.6767213%" y2="26.2923136%" id="linearGradient-3">
            <stop stop-color="#FF02AA" offset="0%"></stop>
            <stop stop-color="#FF8BF4" stop-opacity="0" offset="100%"></stop>
        </linearGradient>
        <linearGradient x1="50%" y1="34.5476641%" x2="22.8225671%" y2="92.5161165%" id="linearGradient-4">
            <stop stop-color="#FB6060" stop-opacity="0" offset="0%"></stop>
            <stop stop-color="#FCA506" offset="100%"></stop>
        </linearGradient>
        <path d="M4.85585586,0 L17.1441441,0 C19.8259593,0 22,2.17404072 22,4.85585586 L22,17.1441441 C22,19.8259593 19.8259593,22 17.1441441,22 L4.85585586,22 C2.17404072,22 0,19.8259593 0,17.1441441 L0,4.85585586 C0,2.17404072 2.17404072,0 4.85585586,0 Z" id="path-5"></path>
        <filter x="-16.2%" y="-10.8%" width="132.4%" height="135.7%" filterUnits="objectBoundingBox" id="filter-6">
            <feOffset dx="0" dy="1" in="SourceAlpha" result="shadowOffsetOuter1"></feOffset>
            <feGaussianBlur stdDeviation="0.5" in="shadowOffsetOuter1" result="shadowBlurOuter1"></feGaussianBlur>
            <feColorMatrix values="0 0 0 0 0.402470336   0 0 0 0 0.462433474   0 0 0 0 0.713599164  0 0 0 0.244004043 0" type="matrix" in="shadowBlurOuter1" result="shadowMatrixOuter1"></feColorMatrix>
            <feMerge>
                <feMergeNode in="shadowMatrixOuter1"></feMergeNode>
                <feMergeNode in="SourceGraphic"></feMergeNode>
            </feMerge>
        </filter>
    </defs>
    <g id="icon/ai搜索" stroke="none" stroke-width="1" fill="none" fill-rule="evenodd">
        <g id="UosAiAssistant" transform="translate(1, 1)" fill-rule="nonzero">
            <g id="编组-3" filter="url(#filter-1)">
                <g id="矩形备份">
                    <use fill="url(#linearGradient-2)" xlink:href="#path-5"></use>
                    <use fill="url(#linearGradient-3)" xlink:href="#path-5"></use>
                    <use fill="url(#linearGradient-4)" xlink:href="#path-5"></use>
                </g>
                <g id="编组-2" filter="url(#filter-6)" transform="translate(3.1267, 3.85)" stroke="#FFFFFF" stroke-width="1.1">
                    <path d="M5.42259329,14.3 C4.36626855,14.3 3.38927028,13.7228435 2.85610462,12.8109463 L1.80182738,11.0745598 C1.78775803,11.0513877 1.79513727,11.0211976 1.81830938,11.0071282 C1.82598864,11.0024656 1.83480026,11 1.84378419,11 L5.19346407,11 C5.71657481,11 6.20041735,10.7224788 6.46453642,10.2709415 L9.78964818,4.58633851 C10.0537673,4.13480118 10.5376098,3.85727998 11.0607205,3.85727998 L14.2703998,3.85727998 C14.2883044,3.85727998 14.3047886,3.86702899 14.3134138,3.8827191 L15.3339667,5.73919949 L15.3339667,5.73919949 C15.8609364,6.6651607 15.8521293,7.80231749 15.3108807,8.72000548 L12.8923057,12.8207035 C12.3577249,13.7270862 11.383833,14.3 10.3315468,14.3 L5.42259329,14.3 Z" id="路径"></path>
                    <path d="M4.95016689,4.04992335 L4.95016689,7.40057716 C4.95016689,7.92368789 5.22768809,8.40753043 5.67922542,8.67164951 L11.4018023,12.0189734 C11.6124004,12.1421593 11.6832621,12.4127446 11.5600763,12.6233428 C11.5179854,12.6953014 11.4563925,12.7538816 11.3824153,12.7923141 L9.64625465,13.6942798 C9.04799023,14.0050887 8.33209832,13.9872098 7.75009451,13.6469246 L2.62256619,10.6489684 C2.02033498,10.2968567 1.65016689,9.65163128 1.65016689,8.95401744 L1.65016689,7.60010018 C1.65016689,6.56100423 2.19773547,5.59880585 3.0910817,5.06809606 L4.87601209,4.00772328 C4.89931854,3.99387762 4.92943628,4.00154712 4.94328193,4.02485357 C4.94778847,4.03243945 4.95016689,4.04109983 4.95016689,4.04992335 Z" id="路径-70" opacity="0.847593762" stroke-linejoin="round" transform="translate(6.8715, 9.0786) rotate(-90) translate(-6.8715, -9.0786)"></path>
                    <path d="M3.97273928,11 C2.91641454,11 1.93941627,10.4505169 1.40625061,9.53861977 L0.0433933245,7.21665141 C0.0296710576,7.19327209 0.0374996417,7.16319532 0.0608789564,7.14947305 C0.0684126217,7.14505124 0.0769898424,7.14272002 0.0857253186,7.14272002 L3.23870879,7.14272002 C3.76181953,7.14272002 4.24566207,6.86519882 4.50978114,6.41366149 L7.8348929,0.729058534 C8.09901198,0.277521207 8.58285452,2.39129444e-12 9.10596525,2.39119835e-12 L12.5145711,2.39037956e-12 C12.532087,2.39101419e-12 12.5482757,0.00933397669 12.5570513,0.0244930639 L13.9336622,2.4024585 L13.9336622,2.4024585 C14.460632,3.32841971 14.4022753,4.46557649 13.8610267,5.38326449 L11.4424517,9.54837696 C10.9078709,10.4547597 9.93397898,11 8.88169278,11 L3.97273928,11 Z" id="路径" transform="translate(7.1497, 5.5) rotate(180) translate(-7.1497, -5.5)"></path>
                    <path d="M13.5376882,3.93153736 L8.26405221,0.810106967 C7.63252068,0.43630762 6.84524543,0.445905502 6.22301443,0.8349898 L4.18899271,2.10687421 C3.95914115,2.25060159 3.88932371,2.55344715 4.03305109,2.7832987 C4.0751293,2.85059098 4.13289724,2.90667651 4.20140343,2.94674805 L9.91467856,6.28863111 C10.3662159,6.55275018 10.6437371,7.03659272 10.6437371,7.55970346 L10.6437371,10.7125759 C10.6437371,10.7396848 10.6657132,10.7616609 10.6928221,10.7616609 C10.7015762,10.7616609 10.710171,10.7593197 10.7177157,10.7548801 L13.049532,9.38274035 C13.9488591,8.85353811 14.5010171,7.88796352 14.5010171,6.84448656 L14.5010171,5.62115242 C14.5010171,4.92729419 14.1347916,4.28495892 13.5376882,3.93153736 Z" id="路径-71" opacity="0.900085449" stroke-linejoin="round" transform="translate(9.001, 5.5) rotate(-90) translate(-9.001, -5.5)"></path>
                </g>
            </g>
        </g>
    </g>
</svg>