<?xml version="1.0" encoding="UTF-8"?>
<svg width="36px" height="36px" viewBox="0 0 36 36" version="1.1" xmlns="http://www.w3.org/2000/svg" xmlns:xlink="http://www.w3.org/1999/xlink">
    <title>音频 2</title>
    <g id="1.1.0" stroke="none" stroke-width="1" fill="none" fill-rule="evenodd">
        <g id="画板" transform="translate(-634.000000, -255.000000)">
            <g id="音频" transform="translate(634.000000, 255.000000)">
                <g id="编组-2" fill="#D8D8D8" opacity="0" stroke="#979797">
                    <g id="编组-3">
                        <rect id="矩形" x="0.5" y="0.5" width="35" height="35"></rect>
                    </g>
                </g>
                <g id="音乐" transform="translate(10.000000, 9.000000)" fill="#C5CFE0">
                    <path d="M8.47763282,1.92332364 L16.5209896,4.50022597 C16.8969131,4.62120009 17.0971715,5.04679579 16.953126,5.42939467 L12.8376366,16.3447605 L12.8067195,16.4103489 L12.7954769,16.4256528 L12.795477,16.4256526 C12.154944,17.8077412 10.5554025,18.3896032 9.22281712,17.7252807 C7.89022492,17.0609564 7.32920101,15.4020031 7.9697323,14.0199216 C8.61026531,12.637833 10.2098069,12.055971 11.5423922,12.7202935 C11.8983647,12.8977529 12.2120678,13.1547026 12.4610098,13.4727202 L14.4734229,8.13674333 L14.4734229,8.13674328 C14.609905,7.77506067 14.437844,7.36710821 14.0891141,7.22555695 C14.077047,7.22065887 14.0648471,7.21612054 14.0525292,7.21194759 L8.67576701,5.39077767 L8.67576697,5.39077765 C8.33112005,5.27426416 7.95907005,5.45949457 7.83116896,5.81127168 L5.22710372,12.9560352 L5.22710372,12.9560352 C4.77680035,14.4166452 3.2701006,15.2220937 1.86179396,14.7550719 C0.752775201,14.387292 0,13.3182534 0,12.1106668 L0,12.1104108 C0,10.5773536 1.19828036,9.33455845 2.67644137,9.33455845 C3.47078094,9.33455833 4.22407935,9.70050403 4.73258211,10.333413 L7.64214015,2.34746217 L7.64214014,2.34746219 C7.76906855,1.9991894 8.13531679,1.81341259 8.47830656,1.92332437 L8.47763282,1.92332364 Z M3.86676405,0.353575825 L4.12323526,0.933669305 L4.12323529,0.933669352 C4.25749823,1.23643736 4.12968714,1.59476441 3.83776216,1.73401517 C3.81746734,1.74369588 3.79665187,1.75215623 3.77541885,1.75935452 L2.34550401,2.24908072 L2.34550403,2.24908071 C2.21718402,2.29273851 2.14728368,2.43601755 2.18937849,2.56910339 C2.19092128,2.57398113 2.19260652,2.57880917 2.19443188,2.58358082 L3.40511688,5.78866481 L3.40511683,5.78866475 C3.92900917,6.55990466 3.75088739,7.62559838 3.00726772,8.16894785 C2.26364805,8.7122991 1.23611977,8.52756134 0.712229147,7.75632144 C0.188336811,6.98508153 0.366458593,5.91938781 1.11007826,5.37603834 C1.38776139,5.17314031 1.71913735,5.06424624 2.0588128,5.06427826 L2.05319151,5.06427826 L0.690732803,1.52249872 L0.69073278,1.52249866 C0.566371244,1.20129281 0.716620241,0.836343588 1.02632367,0.707362362 C1.0423258,0.700698036 1.05859564,0.69474715 1.07508844,0.689526074 L3.16902122,0.0263546932 C3.44797724,-0.0618252377 3.74520312,0.0773678763 3.86676379,0.352839421 L3.86676405,0.353575825 Z" id="形状"></path>
                </g>
            </g>
        </g>
    </g>
</svg>