<?xml version="1.0" encoding="UTF-8"?>
<svg width="36px" height="36px" viewBox="0 0 36 36" version="1.1" xmlns="http://www.w3.org/2000/svg" xmlns:xlink="http://www.w3.org/1999/xlink">
    <title>web搜索 2</title>
    <g id="1.1.0" stroke="none" stroke-width="1" fill="none" fill-rule="evenodd">
        <g id="画板" transform="translate(-634.000000, -327.000000)">
            <g id="编组-4备份" transform="translate(634.000000, 327.000000)">
                <g id="编组备份-6" fill="#D8D8D8" opacity="0" stroke="#979797">
                    <g id="编组-3">
                        <rect id="矩形" x="0.5" y="0.5" width="35" height="35"></rect>
                    </g>
                </g>
                <g id="浏览器" transform="translate(9.000000, 9.000000)" fill="#C5CFE0">
                    <path d="M9,0 L9,0 C4.02943359,0 0,4.02943359 0,9 C0,13.9705664 4.02943359,18 9,18 C13.9705664,18 18,13.9705664 18,9 L18,9 C18,4.02943399 13.9705664,0 9,0 L9,0 Z M1.19997803,9 L1.19997803,9.00007277 C1.20300621,7.18813722 1.83976726,5.43433253 2.9999534,4.04254933 L2.99995341,4.04254934 C3.13243165,4.19313833 3.22068368,4.3774302 3.254954,4.57504876 C3.35245406,5.06254817 3.007454,6.67505462 3.44245458,7.03505462 C4.109954,7.57505462 5.144954,7.11755456 5.69245458,7.4475552 C6.23995517,7.77755462 7.4999956,9.31500247 8.0624956,8.99999895 C8.9399956,8.47499837 7.4324956,6.39750481 7.37249618,5.83500481 C7.27499613,5.00250481 7.79999618,4.02749895 8.7599956,4.3800054 C9.35999501,4.6050054 9.50999618,5.40000598 10.0499962,5.4375054 C10.5899962,5.47500534 10.3499968,3.7050054 10.3499968,3.42001126 C10.3499968,2.62501067 11.0999974,2.05501184 11.9624962,1.77001062 L11.9624961,1.77001062 C15.9467011,3.39721238 17.8574258,7.94615515 16.2302187,11.9303602 C16.1360274,12.160987 16.0308318,12.3869661 15.914992,12.6075153 C15.847492,11.9100153 15.6824914,11.1075159 15.2549914,10.8900147 C14.429992,10.4250153 13.507492,10.8900147 12.8474914,10.1400141 C12.5699908,9.83251472 12.9149914,8.46751355 12.0974908,8.14502 C10.4849914,7.50751941 9.17999665,8.82002 8.78248493,9.87752 L8.78248493,9.87752002 C8.61224483,10.3581692 8.56329626,10.8734122 8.63998487,11.3775194 C8.63998487,13.07252 7.77748428,13.07252 8.11498428,13.7550136 C8.45248428,14.4375142 9.7499837,14.2500136 9.5024837,15.8025136 L9.50248369,15.8025136 C9.46778834,16.0321947 9.35683838,16.2435277 9.18748369,16.402513 L8.72248428,16.6875124 L8.45248428,16.7700106 L8.45248389,16.7700106 C4.37305811,16.4792983 1.20927686,13.0897858 1.19997803,9.0000065 L1.19997803,9 Z" id="形状"></path>
                </g>
            </g>
        </g>
    </g>
</svg>