<?xml version="1.0" encoding="UTF-8"?>
<svg width="24px" height="24px" viewBox="0 0 24 24" version="1.1" xmlns="http://www.w3.org/2000/svg" xmlns:xlink="http://www.w3.org/1999/xlink">
    <title>apps/128/dde-grand-search</title>
    <defs>
        <filter x="-10.3%" y="-5.1%" width="120.5%" height="120.5%" filterUnits="objectBoundingBox" id="filter-1">
            <feOffset dx="0" dy="1" in="SourceAlpha" result="shadowOffsetOuter1"></feOffset>
            <feGaussianBlur stdDeviation="0.5" in="shadowOffsetOuter1" result="shadowBlurOuter1"></feGaussianBlur>
            <feColorMatrix values="0 0 0 0 0   0 0 0 0 0   0 0 0 0 0  0 0 0 0.20036604 0" type="matrix" in="shadowBlurOuter1" result="shadowMatrixOuter1"></feColorMatrix>
            <feMerge>
                <feMergeNode in="shadowMatrixOuter1"></feMergeNode>
                <feMergeNode in="SourceGraphic"></feMergeNode>
            </feMerge>
        </filter>
        <linearGradient x1="36.4211265%" y1="-58.1165483%" x2="36.4211265%" y2="100%" id="linearGradient-2">
            <stop stop-color="#FFFFFF" offset="0%"></stop>
            <stop stop-color="#E0EEFF" offset="100%"></stop>
        </linearGradient>
        <path d="M3.8458278,0 L15.6541722,2.26708535e-16 C16.9914503,-1.31724187e-16 17.4763797,0.139238417 17.9652686,0.400699056 C18.4541574,0.662159695 18.8378403,1.04584256 19.0993009,1.53473144 C19.3607616,2.02362033 19.5,2.50854969 19.5,3.8458278 L19.5,15.6541722 C19.5,16.9914503 19.3607616,17.4763797 19.0993009,17.9652686 C18.8378403,18.4541574 18.4541574,18.8378403 17.9652686,19.0993009 C17.4763797,19.3607616 16.9914503,19.5 15.6541722,19.5 L3.8458278,19.5 C2.50854969,19.5 2.02362033,19.3607616 1.53473144,19.0993009 C1.04584256,18.8378403 0.662159695,18.4541574 0.400699056,17.9652686 C0.139238417,17.4763797 0,16.9914503 0,15.6541722 L0,3.8458278 C0,2.50854969 0.139238417,2.02362033 0.400699056,1.53473144 C0.662159695,1.04584256 1.04584256,0.662159695 1.53473144,0.400699056 C2.02362033,0.139238417 2.50854969,0 3.8458278,0 Z" id="path-3"></path>
        <filter x="-7.7%" y="-7.7%" width="115.4%" height="115.4%" filterUnits="objectBoundingBox" id="filter-4">
            <feGaussianBlur stdDeviation="1" in="SourceAlpha" result="shadowBlurInner1"></feGaussianBlur>
            <feOffset dx="0" dy="-1" in="shadowBlurInner1" result="shadowOffsetInner1"></feOffset>
            <feComposite in="shadowOffsetInner1" in2="SourceAlpha" operator="arithmetic" k2="-1" k3="1" result="shadowInnerInner1"></feComposite>
            <feColorMatrix values="0 0 0 0 0.0561852184   0 0 0 0 0.342940374   0 0 0 0 0.536401721  0 0 0 0.3 0" type="matrix" in="shadowInnerInner1"></feColorMatrix>
        </filter>
        <linearGradient x1="48.4094489%" y1="24.086028%" x2="48.4094489%" y2="100%" id="linearGradient-5">
            <stop stop-color="#FFFFFF" stop-opacity="0.524721372" offset="0%"></stop>
            <stop stop-color="#003DA3" stop-opacity="0.298616423" offset="100%"></stop>
        </linearGradient>
        <linearGradient x1="20.3831333%" y1="-42.5155886%" x2="133.964596%" y2="128.012095%" id="linearGradient-6">
            <stop stop-color="#63F2FF" offset="0%"></stop>
            <stop stop-color="#0056FF" offset="100%"></stop>
        </linearGradient>
    </defs>
    <g id="apps/128/dde-grand-search" stroke="none" fill="none" fill-rule="evenodd" stroke-width="1">
        <g id="编组-3" filter="url(#filter-1)" transform="translate(2.25, 2.25)">
            <g id="矩形" fill-rule="nonzero">
                <use fill="url(#linearGradient-2)" xlink:href="#path-3"></use>
                <use fill="black" fill-opacity="1" filter="url(#filter-4)" xlink:href="#path-3"></use>
            </g>
            <path d="M15.6541722,0 C16.9914503,0 17.4763797,0.139238417 17.9652686,0.400699056 C18.4541574,0.662159695 18.8378403,1.04584256 19.0993009,1.53473144 C19.3607616,2.02362033 19.5,2.50854969 19.5,3.8458278 L19.5,15.6541722 C19.5,16.9914503 19.3607616,17.4763797 19.0993009,17.9652686 C18.8378403,18.4541574 18.4541574,18.8378403 17.9652686,19.0993009 C17.4763797,19.3607616 16.9914503,19.5 15.6541722,19.5 L3.8458278,19.5 C2.50854969,19.5 2.02362033,19.3607616 1.53473144,19.0993009 C1.04584256,18.8378403 0.662159695,18.4541574 0.400699056,17.9652686 C0.139238417,17.4763797 0,16.9914503 0,15.6541722 L0,3.8458278 C0,2.50854969 0.139238417,2.02362033 0.400699056,1.53473144 C0.662159695,1.04584256 1.04584256,0.662159695 1.53473144,0.400699056 C2.02362033,0.139238417 2.50854969,0 3.8458278,0 L15.6541722,0 Z M3.8458278,0.1875 C2.65490874,0.1875 2.14788562,0.285410682 1.62315623,0.56603903 C1.16694268,0.810024707 0.810024707,1.16694268 0.56603903,1.62315623 C0.285410682,2.14788562 0.1875,2.65490874 0.1875,3.8458278 L0.1875,15.6541722 C0.1875,16.8450913 0.285410682,17.3521144 0.56603903,17.8768438 C0.810024707,18.3330573 1.16694268,18.6899753 1.62315623,18.933961 C2.14788562,19.2145893 2.65490874,19.3125 3.8458278,19.3125 L15.6541722,19.3125 C16.8450913,19.3125 17.3521144,19.2145893 17.8768438,18.933961 C18.3330573,18.6899753 18.6899753,18.3330573 18.933961,17.8768438 C19.2145893,17.3521144 19.3125,16.8450913 19.3125,15.6541722 L19.3125,3.8458278 C19.3125,2.65490874 19.2145893,2.14788562 18.933961,1.62315623 C18.6899753,1.16694268 18.3330573,0.810024707 17.8768438,0.56603903 C17.3521144,0.285410682 16.8450913,0.1875 15.6541722,0.1875 L3.8458278,0.1875 Z" id="矩形" fill="url(#linearGradient-5)" fill-rule="nonzero"></path>
            <g id="ICON-/-Action-/-Search" transform="translate(4.0875, 4.11)" fill="url(#linearGradient-6)" fill-rule="nonzero" stroke="#000000" stroke-opacity="0.05" stroke-width="0.375">
                <g id="搜索-(1)">
                    <path d="M4.73542706,0.1875 C5.99101373,0.1875 7.12767941,0.702408804 7.95051347,1.53457272 C8.77410838,2.36750611 9.28335412,3.51822389 9.28335412,4.78912057 C9.28335412,5.9134901 8.88493055,6.94376912 8.22260455,7.74315427 L8.84763818,8.37527496 C9.03292389,8.33749225 9.22170634,8.39716 9.35272951,8.52993403 L10.7626406,9.95583167 C10.9050529,10.0998587 10.9603565,10.3098085 10.9082571,10.506451 L8.55326494,9.32686305 C8.4275517,9.19438851 8.37190368,9.00699269 8.40769193,8.82314482 L7.78988313,8.19833087 C6.95285961,8.96851986 5.86320627,9.3924744 4.73542706,9.39074115 C3.47984038,9.39074115 2.3431747,8.87583234 1.52034064,8.04366843 C0.696745731,7.21073504 0.1875,6.06001726 0.1875,4.78912057 C0.1875,3.51822389 0.696745731,2.36750611 1.52034064,1.53457272 C2.3431747,0.702408806 3.47984038,0.1875 4.73542706,0.1875 Z M4.73542706,1.09162057 C3.72505101,1.09162057 2.81019826,1.50566435 2.14800445,2.17536657 C1.48657147,2.84429932 1.07727964,3.76836151 1.07727964,4.78912057 C1.07727964,5.80987964 1.48657147,6.73394183 2.14800445,7.40287458 C2.81019826,8.0725768 3.72505101,8.48662057 4.73542706,8.48662057 C5.74580311,8.48662057 6.66065586,8.0725768 7.32284967,7.40287458 C7.98428264,6.73394183 8.39357448,5.80987964 8.39357448,4.78912057 C8.39357448,3.76836151 7.98428264,2.84429932 7.32284967,2.17536657 C6.66065586,1.50566435 5.74580311,1.09162057 4.73542706,1.09162057 Z" id="形状结合"></path>
                </g>
            </g>
        </g>
    </g>
</svg>