<?xml version="1.0" encoding="UTF-8"?>
<svg width="36px" height="36px" viewBox="0 0 36 36" version="1.1" xmlns="http://www.w3.org/2000/svg" xmlns:xlink="http://www.w3.org/1999/xlink">
    <title>应用 2</title>
    <defs>
        <filter color-interpolation-filters="auto" id="filter-1">
            <feColorMatrix in="SourceGraphic" type="matrix" values="0 0 0 0 0.324837 0 0 0 0 0.376062 0 0 0 0 0.463382 0 0 0 1.000000 0"></feColorMatrix>
        </filter>
    </defs>
    <g id="1.1.0" stroke="none" stroke-width="1" fill="none" fill-rule="evenodd">
        <g id="画板" transform="translate(-370.000000, -131.000000)">
            <g id="编组-6" transform="translate(370.000000, 131.000000)">
                <rect id="矩形" stroke="#979797" fill="#D8D8D8" opacity="0" x="0.5" y="0.5" width="35" height="35"></rect>
                <g filter="url(#filter-1)" id="应用运维类">
                    <g transform="translate(10.000000, 11.000000)">
                        <path d="M12.8842075,0.252631569 C12.7157867,0.0842105886 12.5052606,0 12.2947339,0 L8.63158019,0 L8.63158019,2.98519348 L16,2.98519348 L12.8842075,0.252631569 Z M1.18420912e-05,2.98519348 L7.36841783,2.98519348 L7.36841783,0 L3.70526416,0 C3.49473742,0 3.28421267,0.0842105886 3.11579049,0.252631569 L1.18420912e-05,2.98519348 Z M0,14.1578941 C0,14.6210526 0.378958774,15 0.842116794,15 L15.1578832,15 C15.6210412,15 15.9999882,14.6210526 15.9999882,14.1578941 L15.9999882,4.02758479 L0,4.02758479 L0,14.1578941 Z M8.29609037,5.30128289 L11.2594651,7.00623081 L11.2594651,7.00623083 C11.4426822,7.11164223 11.5555556,7.3064489 11.5555556,7.5172717 L11.5555556,10.9271583 L11.5555556,10.9271581 C11.5555556,11.1379864 11.4426868,11.3327995 11.2594651,11.4382137 L8.29609041,13.1431616 L8.29609046,13.1431616 C8.11286878,13.2485758 7.88713129,13.2485758 7.70390962,13.1431616 L4.7405349,11.4382137 L4.74053487,11.4382137 C4.55731781,11.3328023 4.44444444,11.1379956 4.44444444,10.9271728 L4.44444444,7.517277 L4.44444444,7.51727715 C4.44444444,7.30644882 4.55731319,7.1116357 4.74053487,7.00622153 L7.70390959,5.30128283 L7.70390956,5.30128285 C7.88713123,5.19586869 8.11286872,5.19586869 8.2960904,5.30128282 L8.29609037,5.30128289 Z M7.92597734,5.68457829 L4.96260262,7.38952621 L4.96260261,7.38952621 C4.91679844,7.41587906 4.88858001,7.46458073 4.88858001,7.51728643 L4.88858001,10.9271546 L4.88858001,10.9271509 C4.88858001,10.9798566 4.91679585,11.0285587 4.96259937,11.0549129 L7.92598335,12.7598609 L7.92598334,12.7598609 C7.97178871,12.7862144 8.02822336,12.7862144 8.07402855,12.7598609 L11.0374033,11.0549129 L11.0374033,11.0549129 C11.0832075,11.0285601 11.1114259,10.9798584 11.1114259,10.9271527 L11.1114259,7.51728455 L11.1114259,7.51728829 C11.1114259,7.46458259 11.08321,7.41588047 11.0374065,7.38952623 L8.07402255,5.68457831 L8.07402256,5.68457832 C8.02821719,5.65822473 7.97178254,5.65822473 7.92597735,5.68457831 L7.92597734,5.68457829 Z M9.88923264,8.12313319 C9.94972391,8.2275248 9.91514055,8.36061081 9.81227874,8.4228681 L9.80795582,8.42542036 L8.22204926,9.33784369 L8.22206406,11.1696113 C8.22206406,11.2902902 8.12513886,11.388397 8.00464486,11.3908608 L7.99999624,11.390905 C7.87735559,11.390905 7.77792843,11.2918245 7.77792843,11.1696113 L7.77792843,9.34073895 L6.18698833,8.42542404 C6.08078069,8.36431748 6.04439118,8.22897427 6.10571151,8.12313688 C6.16703183,8.01729949 6.30284851,7.98102208 6.40905615,8.04214339 L7.99746097,8.95601252 L9.5858658,8.04214339 C9.69207343,7.98102208 9.82789011,8.01729949 9.88921043,8.12313688 L9.88923264,8.12313319 Z" id="形状" fill="#000000" fill-rule="nonzero"></path>
                    </g>
                </g>
            </g>
        </g>
    </g>
</svg>