<?xml version="1.0" encoding="UTF-8"?>
<svg width="32px" height="32px" viewBox="0 0 32 32" version="1.1" xmlns="http://www.w3.org/2000/svg" xmlns:xlink="http://www.w3.org/1999/xlink">
    <title>编组 2</title>
    <defs>
        <linearGradient x1="39.598747%" y1="12.4444444%" x2="75.3018846%" y2="87.5555556%" id="linearGradient-1">
            <stop stop-color="#D7E4FF" offset="0%"></stop>
            <stop stop-color="#F4F9FF" offset="100%"></stop>
        </linearGradient>
        <linearGradient x1="46.8261315%" y1="0.564822635%" x2="46.8261315%" y2="106.941106%" id="linearGradient-2">
            <stop stop-color="#416F97" offset="0%"></stop>
            <stop stop-color="#17255D" offset="100%"></stop>
        </linearGradient>
        <linearGradient x1="39.598747%" y1="14.2011834%" x2="75.3018846%" y2="85.7988166%" id="linearGradient-3">
            <stop stop-color="#D7E4FF" offset="0%"></stop>
            <stop stop-color="#F4F9FF" offset="100%"></stop>
        </linearGradient>
        <linearGradient x1="19.1505187%" y1="-17.6408098%" x2="19.1505187%" y2="133.960992%" id="linearGradient-4">
            <stop stop-color="#E98E6C" offset="0%"></stop>
            <stop stop-color="#7428AA" offset="100%"></stop>
        </linearGradient>
        <linearGradient x1="50%" y1="0%" x2="50%" y2="100%" id="linearGradient-5">
            <stop stop-color="#EFEFEF" offset="0%"></stop>
            <stop stop-color="#EFEFEF" offset="100%"></stop>
        </linearGradient>
        <linearGradient x1="34.3158356%" y1="8.67853163%" x2="63.4505604%" y2="100%" id="linearGradient-6">
            <stop stop-color="#00EADB" offset="0%"></stop>
            <stop stop-color="#0071FF" offset="100%"></stop>
        </linearGradient>
    </defs>
    <g id="1.1.0" stroke="none" stroke-width="1" fill="none" fill-rule="evenodd">
        <g id="编组-2">
            <rect id="矩形" x="0" y="0" width="32" height="32"></rect>
            <g id="32px" transform="translate(1.000000, 3.000000)">
                <g id="矩形">
                    <g id="path-3-link" fill="url(#linearGradient-1)">
                        <path d="M4.375,0 L25.625,0 C28.0412458,0 30,1.95875422 30,4.375 L30,21.625 C30,24.0412458 28.0412458,26 25.625,26 L4.375,26 C1.95875422,26 0,24.0412458 0,21.625 L0,4.375 C0,1.95875422 1.95875422,0 4.375,0 Z" id="path-3"></path>
                    </g>
                    <g id="path-3-link" fill="#000000" fill-rule="nonzero">
                        <path d="M4.375,0 L25.625,0 C28.0412458,0 30,1.95875422 30,4.375 L30,21.625 C30,24.0412458 28.0412458,26 25.625,26 L4.375,26 C1.95875422,26 0,24.0412458 0,21.625 L0,4.375 C0,1.95875422 1.95875422,0 4.375,0 Z" id="path-3"></path>
                    </g>
                </g>
                <path d="M4.5,1 L25.5,1 C27.4329966,1 29,2.56700338 29,4.5 L29,21.5 C29,23.4329966 27.4329966,25 25.5,25 L4.5,25 C2.56700338,25 1,23.4329966 1,21.5 L1,4.5 C1,2.56700338 2.56700338,1 4.5,1 Z" id="矩形" fill="url(#linearGradient-2)" fill-rule="nonzero"></path>
                <path d="M25.875,2 C27.0486051,2 28,2.95139491 28,4.125 L28,6 L27,6 L27,4.4375 C27,3.69029122 26.4298989,3.07623668 25.7009408,3.00658047 L25.5625,3 L24,3 L24,2 L25.875,2 Z M25.875,24 C27.0486051,24 28,23.0486051 28,21.875 L28,20 L27,20 L27,21.5625 C27,22.3097088 26.4298989,22.9237633 25.7009408,22.9934195 L25.5625,23 L24,23.001 L24,24 L25.875,24 Z M4.125,2 C2.95139491,2 2,2.95139491 2,4.125 L2,6 L3,6 L3,4.4375 C3,3.69029122 3.57010108,3.07623668 4.29905916,3.00658047 L4.4375,3 L6,3 L6,2 L4.125,2 Z M4.125,24 C2.95139491,24 2,23.0486051 2,21.875 L2,20 L3,20 L3,21.5625 C3,22.3097088 3.57010108,22.9237633 4.29905916,22.9934195 L4.4375,23 L6,23.001 L6,24 L4.125,24 Z" id="形状结合" fill="url(#linearGradient-3)" fill-rule="nonzero" opacity="0.498705183"></path>
                <g id="编组" transform="translate(14.436287, 13.312500) scale(-1, 1) translate(-14.436287, -13.312500) translate(7.540641, 4.031250)" fill-rule="nonzero">
                    <polygon id="矩形" fill="#FFFFFF" transform="translate(4.008216, 12.663559) rotate(27.000000) translate(-4.008216, -12.663559) " points="3.11583084 10.6862102 4.90060085 10.6862102 4.90060085 14.6409073 3.11583084 14.6409073"></polygon>
                    <path d="M1.50698163,13.4261792 L3.0822952,13.4261792 C3.3969644,13.4261792 3.65205418,13.681269 3.65205418,13.9959382 L3.65205418,16.8493573 C3.65205418,17.5990374 3.04431843,18.2067731 2.29463841,18.2067731 C1.54495838,18.2067731 0.937222644,17.5990374 0.937222644,16.8493573 L0.937222644,13.9959382 C0.937222644,13.681269 1.19231243,13.4261792 1.50698163,13.4261792 Z" id="路径" fill="url(#linearGradient-4)" transform="translate(2.294638, 15.816476) rotate(27.000000) translate(-2.294638, -15.816476) "></path>
                    <circle id="椭圆形" stroke="#FFFFFF" stroke-width="0.5" fill="url(#linearGradient-5)" cx="7.01913573" cy="6.77215528" r="6.77215528"></circle>
                    <circle id="椭圆形" fill="url(#linearGradient-6)" cx="7.01913573" cy="6.77215528" r="5.80954747"></circle>
                </g>
            </g>
        </g>
    </g>
</svg>