<?xml version="1.0" encoding="UTF-8"?>
<svg width="36px" height="36px" viewBox="0 0 36 36" version="1.1" xmlns="http://www.w3.org/2000/svg" xmlns:xlink="http://www.w3.org/1999/xlink">
    <title>文档 2</title>
    <g id="1.1.0" stroke="none" stroke-width="1" fill="none" fill-rule="evenodd">
        <g id="画板" transform="translate(-634.000000, -111.000000)">
            <g id="文档" transform="translate(634.000000, 111.000000)">
                <rect id="矩形" stroke="#979797" fill="#D8D8D8" opacity="0" x="0.5" y="0.5" width="35" height="35"></rect>
                <path d="M23.25,10 C24.2164983,10 25,10.7611159 25,11.7 L25,22.75 L20.625,27 L12.75,27 C11.7835017,27 11,26.2388841 11,25.3 L11,11.7 C11,10.7611159 11.7835017,10 12.75,10 L23.25,10 Z M24,22 L20,22 L20,26 C20,25.9568501 20.0142193,25.9417476 20.0590648,25.8985976 L20.0590648,25.8985976 L23.9223407,22.0582524 C23.9551545,22.0237325 23.9704676,22 24,22 L24,22 Z M13.8513129,19 L13,22 L16,21.1846253 L13.8513129,19 Z M19.2630191,13 L14,18.2651555 L16.7348715,21 L22,15.7348445 L19.2630191,13 Z" id="形状" fill="#C5CFE0"></path>
            </g>
        </g>
    </g>
</svg>