<?xml version="1.0" encoding="UTF-8"?>
<svg width="36px" height="36px" viewBox="0 0 36 36" version="1.1" xmlns="http://www.w3.org/2000/svg" xmlns:xlink="http://www.w3.org/1999/xlink">
    <title>搜索体验 2</title>
    <defs>
        <filter color-interpolation-filters="auto" id="filter-1">
            <feColorMatrix in="SourceGraphic" type="matrix" values="0 0 0 0 0.774103 0 0 0 0 0.813135 0 0 0 0 0.879671 0 0 0 1.000000 0"></feColorMatrix>
        </filter>
    </defs>
    <g id="1.1.0" stroke="none" stroke-width="1" fill="none" fill-rule="evenodd">
        <g id="画板" transform="translate(-634.000000, -368.000000)">
            <g id="编组" transform="translate(634.000000, 368.000000)">
                <g id="编组备份-6" fill="#D8D8D8" opacity="0" stroke="#979797">
                    <g id="编组-3">
                        <rect id="矩形" x="0.5" y="0.5" width="35" height="35"></rect>
                    </g>
                </g>
                <g filter="url(#filter-1)" id="PC端体验-面">
                    <g transform="translate(9.000000, 10.500000)">
                        <path d="M16.5790385,0 C17.3623846,0 18,0.63122172 18,1.40633484 L18,10.7816742 C18,11.556448 17.3623846,12.1873303 16.5790385,12.1873303 L10.6864616,12.1873303 L10.6864616,14.0623303 L12.7893462,14.0623303 C13.0510385,14.0623303 13.2632308,14.2727376 13.2632308,14.5313348 C13.2632308,14.7899321 13.0510385,15 12.7893462,15 L5.21065387,15 L5.21065385,15 C4.94786683,14.998691 4.73581082,14.7889711 4.73676923,14.5313348 C4.73676923,14.2723982 4.94896154,14.0623303 5.21065385,14.0623303 L7.31353846,14.0623303 L7.31353846,12.1873303 L1.42096154,12.1873303 C0.637615385,12.1873303 0,11.556448 0,10.7809955 L0,1.40599548 C0,0.631221719 0.637615385,0 1.42096154,0 L16.5790385,0 L16.5790385,0 Z M4.24419854,6.68486906 C4.83745956,6.68486906 6.84056887,6.68486906 10.2535265,6.68486906 C9.95006515,6.45371231 9.68433092,6.17375052 9.4679157,5.85460472 L4.02763468,5.85460472 C3.82477598,5.85460472 3.66034664,6.02375199 3.66034664,6.233763 L3.66034664,6.30413371 C3.66034664,6.51409806 3.8247582,6.68487839 4.02763468,6.68487839 C4.12389319,6.68487217 4.19608114,6.68486906 4.24419854,6.68486906 Z M13.8401964,6.78647314 C13.771276,6.59911029 13.565306,6.50330122 13.3805019,6.57409187 L13.2938024,6.60726624 C13.1074871,6.67549998 13.0134094,6.8842232 13.0827209,7.06982235 L13.7079115,8.76495316 C13.7774364,8.95171878 13.9825975,9.04688395 14.1673572,8.9771198 L14.25459,8.9441134 C14.4410831,8.87587966 14.5352052,8.66654987 14.4656715,8.48078275 L13.8400542,6.78640781 L13.8401964,6.78647314 Z M4.1508162,8.06887936 C3.9479575,8.06887936 3.78352816,8.23846523 3.78352816,8.44821495 L3.78352816,8.51858566 C3.78352816,8.72875531 3.94793972,8.89974094 4.1508162,8.89974094 L12.3436645,8.89974094 C12.5463365,8.89974094 12.7105589,8.7295765 12.7105589,8.51958416 L12.7105589,8.44838292 C12.710917,8.23861454 12.5465232,8.06840344 12.3436645,8.06840344 L4.1508162,8.06887936 Z M9.63079827,4.24703371 C9.6751925,4.5273781 9.76037182,4.80636939 9.89177661,5.07294945 C10.0352089,5.36328815 10.2230621,5.61550665 10.439664,5.82766396 C10.7324579,6.11524046 11.0791756,6.32997332 11.4542598,6.45718372 C12.1158707,6.68257345 12.8593719,6.64454657 13.5274455,6.29139588 C14.85577,5.58709148 15.3821181,3.89990199 14.7039549,2.52267586 C14.1246786,1.35081353 12.8605097,0.78412443 11.6767821,1.07548962 C11.4698875,1.12609569 11.2656865,1.20007779 11.0679393,1.3046867 C10.7955113,1.44904885 10.5591213,1.63581447 10.3575871,1.85162982 C9.94571818,2.29256427 9.68722001,2.85828287 9.61597945,3.45620534 C9.58473281,3.71675709 9.58948869,3.98275858 9.63082493,4.24709903 M12.2971546,1.67758337 C13.4281408,1.67758337 14.3446052,2.62742474 14.3446052,3.79930574 C14.3446052,4.97077614 13.4279363,5.92040288 12.2971546,5.92040288 C11.1667462,5.92040288 10.2504596,4.97093478 10.2504596,3.79930574 C10.2506552,2.62766737 11.1669151,1.67758337 12.2971546,1.67758337 M3.66034664,3.9830572 L3.66034664,4.05983883 C3.66034664,4.28500459 3.83655459,4.46697369 4.05389431,4.46697369 L9.05664228,4.46697369 C9.01722618,4.2504118 8.99454014,4.02742033 8.99454014,3.79885781 C8.99454014,3.72384922 9.00062945,3.64988578 9.00558091,3.57529711 L4.05391209,3.57529711 C3.83632346,3.57530644 3.66034664,3.75847934 3.66034664,3.9830572 Z" id="形状" fill="#000000" fill-rule="nonzero"></path>
                    </g>
                </g>
            </g>
        </g>
    </g>
</svg>