<?xml version="1.0" encoding="UTF-8"?>
<svg width="36px" height="36px" viewBox="0 0 36 36" version="1.1" xmlns="http://www.w3.org/2000/svg" xmlns:xlink="http://www.w3.org/1999/xlink">
    <title>文件 2</title>
    <g id="1.1.0" stroke="none" stroke-width="1" fill="none" fill-rule="evenodd">
        <g id="画板" transform="translate(-370.000000, -21.000000)">
            <g id="编组-2" transform="translate(370.000000, 21.000000)">
                <rect id="矩形" stroke="#979797" fill="#D8D8D8" opacity="0" x="0.5" y="0.5" width="35" height="35"></rect>
                <g id="文档" transform="translate(11.000000, 9.000000)" fill="#536076">
                    <path d="M9.37499583,0 L1.87499688,0 C0.83905883,0 0.00938146789,0.805496559 0.00938146789,1.79999757 L0,16.2000024 C0,17.1945034 0.829698486,18 1.86561542,18 L13.1250034,18 C14.1609415,18 15,17.1945034 15,16.2000024 L15,5.4000292 L9.37500607,0 L9.37499583,0 Z M11.2499935,14.4000049 L3.74999345,14.4000049 L3.74999345,12.6000073 L11.2499935,12.6000073 L11.2499935,14.4000049 L11.2499935,14.4000049 Z M11.2499935,10.8000138 L3.74999345,10.8000138 L3.74999345,9.00001622 L11.2499935,9.00001622 L11.2499935,10.8000138 L11.2499935,10.8000138 Z M8.40535446,6.00573905 L8.43750599,1.3500144 L13.5615866,6.00573905 L8.40535446,6.00573905 Z" id="形状"></path>
                </g>
            </g>
        </g>
    </g>
</svg>