<?xml version="1.0" encoding="UTF-8"?>
<svg width="36px" height="36px" viewBox="0 0 36 36" version="1.1" xmlns="http://www.w3.org/2000/svg" xmlns:xlink="http://www.w3.org/1999/xlink">
    <title>文件夹 2</title>
    <g id="1.1.0" stroke="none" stroke-width="1" fill="none" fill-rule="evenodd">
        <g id="画板" transform="translate(-370.000000, -57.000000)">
            <g id="编组" transform="translate(370.000000, 57.000000)">
                <rect id="矩形" stroke="#979797" fill="#D8D8D8" opacity="0" x="0.5" y="0.5" width="35" height="35"></rect>
                <g id="文件夹" transform="translate(9.000000, 11.000000)" fill="#536076">
                    <path d="M6.26534821,0.238778386 L7.39924719,1.31677839 C7.55931756,1.46915303 7.78026483,1.55535803 8.01124695,1.55555673 L15.3000013,1.55555673 C16.238885,1.55555669 17,2.25200204 17,3.11111168 L17,12.4444451 C17,13.3035547 16.238885,14 15.3000012,14 L1.69999889,14 C0.761114991,14 0,13.3035547 0,12.4444451 L0,1.55556222 C0,0.696452816 0.761114991,0 1.69999879,0 L5.65249755,0 C5.8837747,0 6.10507279,0.0862084636 6.26534821,0.238778386 Z M3.84628399,5 C3.3789668,4.99991542 3,5.44756267 3,5.99984648 C3,6.55213028 3.378707,6.99991561 3.84602423,7 L13.1539757,7 C13.621293,6.99991541 14,6.55213028 14,5.99984648 C14,5.4476822 13.6211919,5.00008438 13.1539758,5 L3.84628399,5 Z" id="形状"></path>
                </g>
            </g>
        </g>
    </g>
</svg>