<?xml version="1.0" encoding="UTF-8"?>
<svg width="36px" height="36px" viewBox="0 0 36 36" version="1.1" xmlns="http://www.w3.org/2000/svg" xmlns:xlink="http://www.w3.org/1999/xlink">
    <title>图片 2</title>
    <g id="1.1.0" stroke="none" stroke-width="1" fill="none" fill-rule="evenodd">
        <g id="画板" transform="translate(-634.000000, -291.000000)">
            <g id="图片" transform="translate(634.000000, 291.000000)">
                <g id="编组备份-6" fill="#D8D8D8" opacity="0" stroke="#979797">
                    <g id="编组-3">
                        <rect id="矩形" x="0.5" y="0.5" width="35" height="35"></rect>
                    </g>
                </g>
                <g id="照片图片2" transform="translate(9.000000, 11.000000)" fill="#C5CFE0">
                    <path d="M10.185004,10.2167358 L7.11119658,5.41384888 L7.11119661,5.41384893 C6.93771019,5.14238035 6.56819883,5.05754017 6.28587182,5.22435368 C6.20562224,5.27176947 6.13810935,5.33668579 6.08879697,5.41384893 L2.36279931,11.2361594 L2.36279933,11.2361593 C2.18916103,11.5075387 2.2771956,11.862882 2.55943008,12.0298445 C2.65403043,12.0858068 2.76292895,12.1153916 2.87399957,12.1153916 L15.1404012,12.1153916 L15.1404012,12.1153916 C15.4717726,12.1151399 15.740189,11.8566385 15.7399276,11.5380121 C15.7399276,11.4337162 15.710354,11.3313931 15.6546016,11.2419287 L13.1142041,7.17058969 L13.1142041,7.17058972 C12.9434433,6.89752829 12.5748007,6.80927254 12.2908143,6.97346447 C12.2067462,7.02207071 12.1363547,7.08975491 12.0858043,7.17058972 L10.1850055,10.216745 L10.185004,10.2167358 Z M2,0 L16,0 C17.1045695,-2.02906125e-16 18,0.8954305 18,2 L18,13 C18,14.1045695 17.1045695,15 16,15 L2,15 C0.8954305,15 1.3527075e-16,14.1045695 0,13 L0,2 C-1.3527075e-16,0.8954305 0.8954305,2.02906125e-16 2,0 Z M13.2000021,4.61539598 L13.2000021,4.61539598 C13.862742,4.61549355 14.4000839,4.09897747 14.4001851,3.46172686 C14.4002866,2.82447626 13.8631104,2.30780084 13.2003705,2.30770347 C13.2002481,2.30770347 13.2001256,2.30770347 13.2000031,2.30770347 L13.2000031,2.30770347 C12.5372632,2.30780105 12.0000873,2.82447356 12.0001885,3.46172686 C12.00029,4.09883954 12.5374066,4.61529862 13.2000031,4.61539598 L13.2000021,4.61539598 Z" id="形状"></path>
                </g>
            </g>
        </g>
    </g>
</svg>