<?xml version="1.0" encoding="UTF-8"?>
<svg width="36px" height="36px" viewBox="0 0 36 36" version="1.1" xmlns="http://www.w3.org/2000/svg" xmlns:xlink="http://www.w3.org/1999/xlink">
    <title>设置 2</title>
    <g id="1.1.0" stroke="none" stroke-width="1" fill="none" fill-rule="evenodd">
        <g id="画板" transform="translate(-370.000000, -167.000000)">
            <g id="编组-2" transform="translate(370.000000, 167.000000)">
                <rect id="矩形" stroke="#979797" fill="#D8D8D8" opacity="0" x="0.5" y="0.5" width="35" height="35"></rect>
                <g id="设置-选中" transform="translate(10.000000, 10.000000)" fill="#536076">
                    <path d="M15.8328802,5.95210486 C15.8403205,5.98867607 16,6.83769074 16,7.50666254 C16,8.18913755 15.8351696,9.05221807 15.8328802,9.06065758 C15.7390185,9.55014914 15.4368293,9.86803734 15.0499356,9.86803734 L14.9824009,9.86803734 C13.9018458,9.86803734 13.024467,10.7395574 13.024467,11.8119377 C13.024467,12.157395 13.1933038,12.5506761 13.1950207,12.5540519 C13.3884676,12.9855922 13.23909,13.5144681 12.8230076,13.8008488 L10.7803692,14.9188025 L10.7803692,14.9188025 C10.3537416,15.0903445 9.86365719,14.9846254 9.54929176,14.6532393 C9.32722852,14.412432 8.55801976,13.7226427 7.95707542,13.7226427 C7.40306197,13.7226427 6.65331236,14.337039 6.37630564,14.6357977 C6.1788525,14.8490359 5.87322938,14.9761912 5.5624553,14.9761912 C5.41365004,14.9761912 5.27285736,14.9480595 5.11832882,14.8805434 L3.14952069,13.7850951 L3.14952068,13.7850951 C2.75636894,13.5034036 2.61343003,12.9919869 2.80497925,12.552364 C2.80669624,12.5489882 2.97553298,12.1590829 2.97553298,11.8119377 C2.97553298,10.7412453 2.09815424,9.86803732 1.01817141,9.86803732 L0.936328516,9.86803732 C0.563170697,9.86803732 0.260981542,9.55183703 0.16711976,9.06065756 C0.159679496,9.02408636 0,8.17169588 0,7.50666252 C0,6.83937862 0.160251824,5.98755078 0.16711976,5.95210484 C0.260981542,5.46148801 0.561453713,5.14528772 0.948347403,5.14528772 L1.0158821,5.14528772 C2.09643726,5.14528772 2.973816,4.27320505 2.973816,3.20138733 C2.973816,2.85030373 2.80497925,2.46264892 2.80326227,2.45871048 C2.60981542,2.02773285 2.75919302,1.49660638 3.17642009,1.21022568 L5.25683216,0.0804566587 C5.38503362,0.0258811629 5.52353699,0 5.66890828,0 C5.98025469,0 6.2835885,0.123779475 6.48275862,0.333641948 C6.70138789,0.560383441 7.45628845,1.21022568 8.03949063,1.21022568 C8.61639719,1.21022568 9.36786378,0.57444929 9.58477608,0.351083602 C9.7839462,0.146847468 10.085563,0.024755895 10.3929031,0.024755895 C10.5422807,0.024755895 10.6847904,0.0523249599 10.8393189,0.118715769 L12.846473,1.22935524 C13.237373,1.49998218 13.3867506,2.02942075 13.1933038,2.46264892 C13.1915868,2.46602472 13.02275,2.85536743 13.02275,3.20307523 C13.02275,4.27376769 13.9018458,5.14697562 14.9801116,5.14697562 L15.0619545,5.14697562 C15.4368293,5.14528772 15.7390185,5.46148801 15.8328802,5.95210484 L15.8328802,5.95210486 Z M10.8370296,7.71933818 C10.8370296,6.16871894 9.56531693,4.9078562 8.0040063,4.9078562 C6.44155101,4.9078562 5.16983832,6.16815631 5.16983832,7.71933818 C5.16983832,9.27052006 6.44040635,10.5313828 8.00343397,10.5313828 C9.56703391,10.5313828 10.8370296,9.27052006 10.8370296,7.71933818 Z" id="形状"></path>
                </g>
            </g>
        </g>
    </g>
</svg>