<?xml version="1.0" encoding="UTF-8"?>
<svg width="36px" height="36px" viewBox="0 0 36 36" version="1.1" xmlns="http://www.w3.org/2000/svg" xmlns:xlink="http://www.w3.org/1999/xlink">
    <title>视频 2</title>
    <g id="1.1.0" stroke="none" stroke-width="1" fill="none" fill-rule="evenodd">
        <g id="画板" transform="translate(-370.000000, -203.000000)">
            <g id="编组-3" transform="translate(370.000000, 203.000000)">
                <rect id="矩形" stroke="#979797" fill="#D8D8D8" opacity="0" x="0.5" y="0.5" width="35" height="35"></rect>
                <g id="视频" transform="translate(9.000000, 10.000000)" fill="#536076">
                    <path d="M2,0 L16,0 C17.1045695,-2.02906125e-16 18,0.8954305 18,2 L18,13 C18,14.1045695 17.1045695,15 16,15 L2,15 C0.8954305,15 1.3527075e-16,14.1045695 0,13 L0,2 C-1.3527075e-16,0.8954305 0.8954305,2.02906125e-16 2,0 Z M7.38983464,6.96974796 L7.3897743,6.97657357 L7.3897743,11.3430654 C7.3897743,11.4108383 7.40777842,11.4773122 7.4418846,11.5355056 C7.5452589,11.711868 7.76839857,11.771071 7.94312929,11.6697699 L7.94920304,11.6661732 L11.5570868,9.48291708 C11.6099809,9.45090844 11.6541804,9.40599651 11.6856812,9.35224951 C11.7890555,9.17588711 11.7339896,8.94833262 11.5630801,8.84049202 L7.94916281,6.65349611 C7.89189084,6.61883937 7.82646939,6.60054652 7.75981086,6.60054652 C7.55770726,6.60054652 7.39341453,6.7652248 7.38983464,6.96974796 Z M1.2030838,2.35889185 L1.2030838,3.0021161 L2.98836201,3.0021161 L1.32795754,1.78366024 C1.24857872,1.95691378 1.20608806,2.1452441 1.20326477,2.33633061 L1.2030838,2.35889185 Z M13.7649117,0.995240625 L15.9995263,2.95409158 C16.0129408,2.96962291 16.0254704,2.98566515 16.0370547,3.0021161 L16.7968961,3.0021161 L16.7968961,2.35889185 C16.7968961,1.61330602 16.2080849,1.00746133 15.4772045,0.995424549 L15.4550212,0.995240625 L13.7649117,0.995240625 Z M12.1636156,0.995240625 L9.95868603,0.995240625 L12.1619263,2.957627 C12.1741944,2.97205479 12.1856983,2.98691174 12.1964179,3.0021161 L14.4397207,3.0021161 L12.1636156,0.995240625 Z M6.21062346,0.995240625 L8.41386369,2.957627 C8.42613184,2.97205479 8.43763575,2.98691174 8.44835531,3.0021161 L10.6091598,3.0021161 L8.36806927,0.995240625 L6.21062346,0.995240625 Z M4.6200067,0.995240625 L2.54497877,0.995240625 C2.45210279,0.995240625 2.36143911,1.00484553 2.27387263,1.02309485 L4.59104581,2.9713191 C4.60009609,2.98137359 4.60874413,2.99165289 4.61701006,3.00213654 L6.86109721,3.0021161 L4.6200067,0.995240625 Z" id="形状"></path>
                </g>
            </g>
        </g>
    </g>
</svg>